<?xml version="1.0" standalone="no"?>
<!DOCTYPE svg PUBLIC "-//W3C//DTD SVG 20010904//EN"
 "http://www.w3.org/TR/2001/REC-SVG-20010904/DTD/svg10.dtd">
<svg version="1.0" xmlns="http://www.w3.org/2000/svg"
 width="980.000000pt" height="924.000000pt" viewBox="0 0 980.000000 924.000000"
 preserveAspectRatio="xMidYMid meet">

<g transform="translate(0.000000,924.000000) scale(0.100000,-0.100000)"
fill="white" stroke="none">
<path d="M4895 9223 c-1402 -89 -2693 -819 -3498 -1976 -289 -415 -552 -981
-660 -1417 l-13 -55 -357 -5 -357 -5 705 -705 705 -705 708 708 707 707 -413
0 -413 0 6 23 c31 102 159 365 256 529 215 362 527 711 864 965 890 670 2061
860 3108 503 527 -179 947 -446 1338 -848 163 -168 272 -301 386 -472 625
-937 742 -2116 313 -3159 -228 -555 -603 -1038 -1090 -1405 -471 -355 -988
-566 -1600 -652 -177 -25 -662 -26 -840 -1 -737 103 -1367 400 -1890 890 -299
281 -530 594 -722 979 l-63 128 -450 -450 -450 -450 24 -43 c96 -169 249 -391
396 -574 745 -930 1835 -1540 3015 -1687 1648 -206 3259 475 4264 1803 499
659 806 1441 903 2302 24 216 24 722 0 938 -76 670 -274 1285 -592 1831 -776
1336 -2124 2182 -3664 2300 -122 9 -501 11 -626 3z"/>
</g>
</svg>
